<mxfile host="app.diagrams.net" modified="2021-12-09T11:04:12.058Z" agent="5.0 (Windows NT 10.0; Win64; x64) AppleWebKit/537.36 (KHTML, like Gecko) Chrome/96.0.4664.55 Safari/537.36 Edg/96.0.1054.43" etag="xseTeGrPro_02z7LrIjR" version="15.8.8" type="github">
  <diagram name="Page-1" id="82e54ff1-d628-8f03-85c4-9753963a91cd">
    <mxGraphModel dx="1038" dy="588" grid="1" gridSize="10" guides="1" tooltips="1" connect="1" arrows="1" fold="1" page="1" pageScale="1" pageWidth="1100" pageHeight="850" background="none" math="0" shadow="0">
      <root>
        <mxCell id="0" />
        <mxCell id="1" parent="0" />
        <mxCell id="4ec97bd9e5d20128-1" value="" style="line;strokeWidth=2;html=1;fillColor=none;fontSize=28;fontColor=#004D99;strokeColor=#001933;" parent="1" vertex="1">
          <mxGeometry x="40" y="400" width="760" height="10" as="geometry" />
        </mxCell>
        <mxCell id="4ec97bd9e5d20128-5" value="2月份前" style="shape=offPageConnector;whiteSpace=wrap;html=1;fillColor=#000033;fontSize=15;fontColor=#FFFFFF;size=0.75;verticalAlign=top;strokeColor=none;labelBorderColor=none;" parent="1" vertex="1">
          <mxGeometry x="120" y="340" width="160" height="40" as="geometry" />
        </mxCell>
        <mxCell id="4ec97bd9e5d20128-6" value="&lt;span&gt;5~9月份&lt;/span&gt;" style="shape=offPageConnector;whiteSpace=wrap;html=1;fillColor=#000033;fontSize=15;fontColor=#FFFFFF;size=0.75;verticalAlign=top;strokeColor=none;" parent="1" vertex="1">
          <mxGeometry x="573" y="340" width="160" height="40" as="geometry" />
        </mxCell>
        <mxCell id="4ec97bd9e5d20128-7" value="&lt;span&gt;2~5月份&lt;/span&gt;" style="shape=offPageConnector;whiteSpace=wrap;html=1;fillColor=#000033;fontSize=15;fontColor=#FFFFFF;size=0.42857142857142855;flipV=1;verticalAlign=bottom;strokeColor=none;spacingBottom=4;" parent="1" vertex="1">
          <mxGeometry x="347" y="425" width="160" height="35" as="geometry" />
        </mxCell>
        <mxCell id="4ec97bd9e5d20128-9" value="" style="ellipse;whiteSpace=wrap;html=1;fillColor=#0066CC;fontSize=28;fontColor=#004D99;strokeWidth=3;strokeColor=#004C99;" parent="1" vertex="1">
          <mxGeometry x="190" y="395" width="20" height="20" as="geometry" />
        </mxCell>
        <mxCell id="4ec97bd9e5d20128-10" value="" style="ellipse;whiteSpace=wrap;html=1;fillColor=#0066CC;fontSize=28;fontColor=#004D99;strokeWidth=3;strokeColor=#004C99;" parent="1" vertex="1">
          <mxGeometry x="417" y="395" width="20" height="20" as="geometry" />
        </mxCell>
        <mxCell id="4ec97bd9e5d20128-11" value="" style="ellipse;whiteSpace=wrap;html=1;fillColor=#0066CC;fontSize=28;fontColor=#004D99;strokeWidth=3;strokeColor=#004C99;" parent="1" vertex="1">
          <mxGeometry x="643" y="395" width="20" height="20" as="geometry" />
        </mxCell>
        <mxCell id="4ec97bd9e5d20128-14" value="&lt;h1&gt;学习算法&lt;/h1&gt;&lt;p&gt;&lt;span style=&quot;font-size: 12pt&quot;&gt;学习该项目涉及的多个算法，&lt;/span&gt;&lt;span lang=&quot;EN-US&quot; style=&quot;font-size: 12pt ; font-family: &amp;#34;times new roman&amp;#34; , serif&quot;&gt;Python&lt;/span&gt;&lt;span style=&quot;font-size: 12pt&quot;&gt;语言、&lt;/span&gt;&lt;span lang=&quot;EN-US&quot; style=&quot;font-size: 12pt ; font-family: &amp;#34;times new roman&amp;#34; , serif&quot;&gt;Darknet53&lt;/span&gt;&lt;span style=&quot;font-size: 12pt&quot;&gt;框架、&lt;/span&gt;&lt;span lang=&quot;EN-US&quot; style=&quot;font-size: 12pt ; font-family: &amp;#34;times new roman&amp;#34; , serif&quot;&gt;Jupyter&lt;/span&gt;&lt;span lang=&quot;EN-US&quot; style=&quot;font-size: 12pt&quot;&gt; &lt;/span&gt;&lt;span lang=&quot;EN-US&quot; style=&quot;font-size: 12pt ; font-family: &amp;#34;times new roman&amp;#34; , serif&quot;&gt;Notebook&lt;/span&gt;&lt;span style=&quot;font-size: 12pt&quot;&gt;的基本使用及&lt;/span&gt;&lt;span lang=&quot;EN-US&quot; style=&quot;font-size: 12pt ; font-family: &amp;#34;times new roman&amp;#34; , serif&quot;&gt;OpenCV&lt;/span&gt;&lt;span style=&quot;font-size: 12pt&quot;&gt;相关知识&lt;/span&gt;&lt;/p&gt;&lt;p&gt;&lt;span style=&quot;font-size: 12pt&quot;&gt;定期布置学习任务&lt;/span&gt;&lt;/p&gt;&lt;p&gt;&lt;span style=&quot;font-size: 12pt&quot;&gt;了解组员的学习情况&lt;/span&gt;&lt;span style=&quot;font-size: 12pt&quot;&gt;&lt;br&gt;&lt;/span&gt;&lt;/p&gt;" style="text;html=1;spacing=5;spacingTop=-15;whiteSpace=wrap;overflow=hidden;strokeColor=none;strokeWidth=3;fillColor=#E6E6E6;fontSize=13;fontColor=#000000;align=center;rounded=1;" parent="1" vertex="1">
          <mxGeometry x="93" y="430" width="215" height="210" as="geometry" />
        </mxCell>
        <mxCell id="4ec97bd9e5d20128-16" value="&lt;h1&gt;算法&amp;amp;基本demo&lt;/h1&gt;&lt;p&gt;&lt;font style=&quot;font-size: 16px&quot;&gt;使用2个月学会YOLOv5，并开始使用YOLOv5进行人体识别，并做到能有效识别敌我双方。在此基础上，我们再计划再用1个月，引入MobilePose，对人体姿势及肢体部位进行识别。&lt;/font&gt;&lt;/p&gt;" style="text;html=1;spacing=5;spacingTop=-9;whiteSpace=wrap;overflow=hidden;strokeColor=none;strokeWidth=3;fillColor=#E6E6E6;fontSize=13;fontColor=#000000;align=center;rounded=1;spacingLeft=2;spacingRight=2;" parent="1" vertex="1">
          <mxGeometry x="319" y="150" width="215" height="220" as="geometry" />
        </mxCell>
        <mxCell id="4ec97bd9e5d20128-17" value="&lt;h1&gt;结题&lt;/h1&gt;&lt;div&gt;&lt;font style=&quot;font-size: 16px&quot;&gt;结合上述算法，实现预期的结题目标。&lt;/font&gt;&lt;br&gt;&lt;/div&gt;" style="text;html=1;spacing=5;spacingTop=-15;whiteSpace=wrap;overflow=hidden;strokeColor=none;strokeWidth=3;fillColor=#E6E6E6;fontSize=13;fontColor=#000000;align=center;rounded=1;" parent="1" vertex="1">
          <mxGeometry x="545" y="430" width="215" height="120" as="geometry" />
        </mxCell>
      </root>
    </mxGraphModel>
  </diagram>
</mxfile>
